<?xml version="1.0" encoding="UTF-8"?>
<svg xmlns="http://www.w3.org/2000/svg" version="1.1" viewBox="0 0 7623 1389">
  <defs>
    <style>
      .cls-1 {
        fill: #ed2f92;
      }

      .cls-2 {
        fill: #944299;
      }

      .cls-3 {
        fill: #fff;
      }

      .cls-4 {
        fill: #0396c3;
      }

      .cls-5 {
        fill: #3157a1;
      }
    </style>
  </defs>
  <!-- Generator: Adobe Illustrator 28.6.0, SVG Export Plug-In . SVG Version: 1.2.0 Build 709)  -->
  <g>
    <g id="Layer_1">
      <g>
        <path class="cls-3" d="M2949.8,458.1c-25.4-24.4-55.6-43.4-90.5-56.8-34.4-13.5-72.3-20.2-113.6-20.2s-78.8,6.7-113.6,20.2c-34.9,13.5-65.3,32.4-91.2,56.8-25.9,24.4-46.1,53.1-60.6,86-14,32.9-20.9,68.8-20.9,107.7s7,74.8,20.9,107.7c14.4,32.9,34.4,61.6,59.8,86,25.9,24.4,56.3,43.4,91.2,56.8,35.4,13.5,73.8,20.2,115.1,20.2s78.5-6.7,112.9-20.2c34.9-13.5,65.1-32.2,90.5-56.1,25.9-24.4,46.1-53.1,60.6-86,14.4-33.4,21.7-69.5,21.7-108.4s-7.2-75.3-21.7-107.7c-14.5-32.9-34.6-61.6-60.6-86ZM2896.7,719.8c-8,20.4-19.4,38.1-34.4,53.1-15,15-32.4,26.4-52.3,34.4-19.4,8-40.9,12-64.3,12s-45.1-4-65.1-12c-19.9-8-37.4-19.4-52.3-34.4-14.4-15-25.9-32.6-34.4-53.1-8-20.9-12-43.6-12-68s4-47.6,12-68c8.5-20.4,20.2-38.1,35.1-53.1,15-15,32.2-26.4,51.6-34.4,19.9-8,41.6-12,65.1-12s45.1,4,65.1,12c19.9,8,37.1,19.4,51.6,34.4,14.9,15,26.4,32.6,34.4,53.1,8.5,20.4,12.7,43.1,12.7,68s-4.2,47.6-12.7,68Z"/>
        <path class="cls-3" d="M3470.7,745.3c33.9-15,60.1-36.4,78.5-64.3,18.4-28.4,27.7-62.1,27.7-100.9s-9.2-73.3-27.7-101.7c-18.4-28.4-44.6-50.1-78.5-65-33.9-15.5-74.3-23.2-121.1-23.2h-226.6v523.4h121.1v-145.8h105.4c1.9,0,3.8,0,5.7,0l100.5,145.9h130.9l-116.9-167.8c.3-.1.7-.3,1-.4ZM3426.6,512.7c18.4,16,27.7,38.4,27.7,67.3s-9.2,50.8-27.7,67.3c-18.4,16-46.4,23.9-83.7,23.9h-98.7v-182.4h98.7c37.4,0,65.3,8,83.7,23.9Z"/>
        <polygon class="cls-3" points="1978.2 488.8 2145.7 488.8 2145.7 913.5 2266.8 913.5 2266.8 488.8 2434.3 488.8 2434.3 390.1 1978.2 390.1 1978.2 488.8"/>
        <polygon class="cls-3" points="1739.8 922.5 1739.8 922.5 1739.8 922.5 1739.8 922.5"/>
        <path class="cls-3" d="M1901.3,648.8c-17.9-11-37.9-19.7-59.8-26.2-21.5-6.5-43.2-12.2-65.1-17.2-21.4-5-41.1-10-59.1-15-17.9-5-32.4-11.5-43.4-19.4-11-8.5-16.4-19.4-16.4-32.9s3.2-21.4,9.7-29.9c6.5-9,17.2-16.2,32.2-21.7,14.9-5.5,34.1-8.2,57.6-8.2s47.3,3.5,71.8,10.5c24.4,6.5,48.8,16.7,73.3,30.7l37.4-92c-24.4-15.5-52.6-26.9-84.5-34.4-31.9-8-64.3-12-97.2-12-49.3,0-90.5,7.5-123.4,22.4-32.4,14.5-56.8,34.1-73.3,59.1-16,24.4-23.9,51.6-23.9,81.5s5.5,50.8,16.4,68.8c11.5,17.9,26.2,32.4,44.1,43.4,17.9,11,37.6,19.9,59.1,26.9,21.9,7,43.6,13,65.1,17.9,21.9,4.5,41.9,9.5,59.8,15,17.9,5,32.4,11.7,43.4,20.2,11,8,16.4,18.9,16.4,32.9s-3.5,20.7-10.5,29.2c-7,8.5-17.9,15.2-32.9,20.2-14.4,4.5-33.6,6.7-57.6,6.7s-62.5-5-93.5-15c-30.4-10.5-56.8-23.7-79.2-39.6l-41.1,91.2c23.4,17.9,54.3,32.6,92.7,44.1,38.4,11,78.5,16.5,120.4,16.5s91-7.5,123.4-22.4c32.9-15,57.6-34.6,74-59.1,16.5-24.4,24.7-51.3,24.7-80.8s-5.7-50.1-17.2-68c-11-17.9-25.4-32.4-43.4-43.4Z"/>
        <path class="cls-3" d="M6788.7,390.1l-233.3,523.4h124.1l46.6-112.2h242.6l46.5,112.2h127.1l-234-523.4h-119.6ZM6764.4,709.4l83.3-200.3,83,200.3h-166.3Z"/>
        <polygon class="cls-3" points="5908 488.8 6075.4 488.8 6075.4 913.5 6196.6 913.5 6196.6 488.8 6364 488.8 6364 390.1 5908 390.1 5908 488.8"/>
        <rect class="cls-3" x="7196.6" y="390.1" width="121.1" height="523.4"/>
        <polygon class="cls-3" points="5485.9 913.5 5607 913.5 5607 722.8 5849.2 722.8 5849.2 625.6 5607 625.6 5607 487.3 5881.4 487.3 5881.4 390.1 5485.9 390.1 5485.9 913.5"/>
        <path class="cls-3" d="M4493.3,648.8c-17.9-11-37.9-19.7-59.8-26.2-21.5-6.5-43.2-12.2-65-17.2-21.4-5-41.1-10-59.1-15-17.9-5-32.4-11.5-43.4-19.4-11-8.5-16.5-19.4-16.5-32.9s3.2-21.4,9.7-29.9c6.5-9,17.2-16.2,32.1-21.7,14.9-5.5,34.1-8.2,57.6-8.2s47.3,3.5,71.8,10.5c24.4,6.5,48.9,16.7,73.3,30.7l37.4-92c-24.4-15.5-52.6-26.9-84.5-34.4-31.9-8-64.3-12-97.2-12-49.4,0-90.5,7.5-123.4,22.4-32.4,14.5-56.8,34.1-73.3,59.1-16,24.4-23.9,51.6-23.9,81.5s5.5,50.8,16.5,68.8c11.5,17.9,26.2,32.4,44.1,43.4,17.9,11,37.6,19.9,59.1,26.9,21.9,7,43.6,13,65,17.9,21.9,4.5,41.9,9.5,59.8,15,18,5,32.4,11.7,43.4,20.2,11,8,16.5,18.9,16.5,32.9s-3.5,20.7-10.5,29.2c-7,8.5-17.9,15.2-32.9,20.2-14.4,4.5-33.6,6.7-57.6,6.7s-62.6-5-93.5-15c-30.4-10.5-56.8-23.7-79.3-39.6l-41.1,91.2c23.4,17.9,54.3,32.6,92.7,44.1,38.4,11,78.5,16.5,120.4,16.5s91-7.5,123.4-22.4c32.9-15,57.6-34.6,74-59.1,16.5-24.4,24.7-51.3,24.7-80.8s-5.7-50.1-17.2-68c-11-17.9-25.4-32.4-43.4-43.4Z"/>
        <polygon class="cls-3" points="4120.1 390.1 4001.3 390.1 3861.1 622.4 3721.6 390.1 3593 390.1 3795.6 726.9 3795.6 913.5 3795.6 913.5 3916.8 913.5 3916.8 728.2 4120.1 390.1"/>
        <rect class="cls-3" x="5240.5" y="390.1" width="121.1" height="523.4"/>
        <polygon class="cls-3" points="4995.6 596.5 4757.8 596.5 4757.8 390.1 4636.7 390.1 4636.7 913.5 4757.8 913.5 4757.8 698.9 4995.6 698.9 4995.6 913.5 5116.7 913.5 5116.7 390.1 4995.6 390.1 4995.6 596.5"/>
      </g>
      <path class="cls-1" d="M6440.3,919.5c-19.9,0-37.1-6.7-51.6-20.2-14-14-20.9-31.7-20.9-53.1s7-38.6,20.9-51.6c14.5-13.5,31.7-20.2,51.6-20.2s37.6,6.7,51.6,20.2c14,13,20.9,30.2,20.9,51.6s-7,39.1-20.9,53.1c-14,13.5-31.1,20.2-51.6,20.2Z"/>
      <path class="cls-4" d="M1039.8,1107.9c-54.1,0-98-33.8-98-75.5V410.1c0-41.7,43.9-75.5,98-75.5s98,33.8,98,75.5v622.3c0,41.7-43.9,75.5-98,75.5h0Z"/>
      <path class="cls-5" d="M754,998.7c-54.1,0-98-33.8-98-75.5V75.5c0-41.7,43.9-75.5,98-75.5s98,33.8,98,75.5v847.6c0,41.7-43.9,75.5-98,75.5v.2Z"/>
      <path class="cls-1" d="M98,882.7c-54.1,0-98-33.8-98-75.5V252.2c0-41.7,43.9-75.5,98-75.5s98,33.8,98,75.5v554.8c0,41.7-43.9,75.5-98,75.5,0,0,0,.2,0,.2Z"/>
      <path class="cls-2" d="M427.9,1212.7c-54.1,0-98-33.8-98-75.4V357c0-41.7,43.9-75.5,98-75.5s98,33.8,98,75.5v780c0,41.7-43.9,75.4-98,75.4v.2h0Z"/>
    </g>
  </g>
</svg>